# xmcd
#
# Track frame offsets: 
#        150
#        9837
#        29865
#        53287
#        68111
#        91154
#        105305
#        123162
#        137322
#        153747
#        172999
#
# Disc length: 2570 seconds
#
# Revision: 0
# Processed by: cddbd v1.5.2PL0 Copyright (c) Steve Scherf et al.
# Submitted via: ExactAudioCopyFreeDBPlugin 1.0
#
DISCID=790a080b
DTITLE=Ernie Haase and Signature Sound - Happy People
DYEAR=2015
DGENRE=Gospel
TTITLE0=One of These Mornings
TTITLE1=Happy People
TTITLE2=Thank You for Saving Me
TTITLE3=Love Walked In
TTITLE4=Jesus Changed Everything
TTITLE5=Let Your Love Light Shine
TTITLE6=Angels Everywhere
TTITLE7=It's Good to See the Sun
TTITLE8=Joshua Led God's Children
TTITLE9=A Soldier Fighting to go Home
TTITLE10=I Do Believe
EXTD=
EXTT0=
EXTT1=
EXTT2=
EXTT3=
EXTT4=
EXTT5=
EXTT6=
EXTT7=
EXTT8=
EXTT9=
EXTT10=
PLAYORDER=
